<svg version="1.1" viewBox="0 0 241.16 74" xmlns="http://www.w3.org/2000/svg"><g transform="translate(-1,-1)" fill="#525ddc" fill-rule="evenodd"><path d="m2.233 1-1.233 1.233v16.034l1.057 1.057 34.886-5.815 1.057 1.058v11.1l35.52-5.92 1.48-1.48v-16.034l-1.233-1.233zm0.247 30.587-1.48 1.48v9.866l1.057 1.057 35.943-5.99v-12.333zm35.52 6.413v12.334l35.52-5.92 1.48-1.48v-9.867l-1.057-1.057zm-35.52 18.253-1.48 1.48v16.034l1.233 1.233h71.534l1.233-1.233v-16.034l-1.057-1.057-34.886 5.815-1.057-1.057v-11.1l-35.52 5.92zm118.46-12.473c0 5.32-3.8 7.22-7.6 7.22h-12.92l-0.38-0.38v-25.84l0.38-0.38h12.16c3.8 0 7.6 1.9 7.6 6.84 0 2.66-1.14 4.94-3.8 5.7v0.38c3.04 0.76 4.56 3.04 4.56 6.46zm-6.08-11.78c0-1.9-0.76-3.04-3.04-3.04h-6.08l-0.38 0.38v5.32l0.38 0.38h6.08c2.28 0 3.04-1.52 3.04-3.04zm0.76 11.02c0-2.28-1.14-3.42-3.8-3.42h-6.08l-0.38 0.38v6.08l0.38 0.38h6.08c2.66 0 3.8-1.14 3.8-3.42zm26.22-1.52v1.52l-0.38 0.38h-11.78l-0.38 0.38c0 0.76 0.76 3.04 3.8 3.04 1.14 0 2.28-0.38 2.66-1.14l0.38-0.38h4.56l0.38 0.38c-0.38 2.28-2.28 5.7-7.98 5.7-6.46 0-9.5-4.56-9.5-9.88s3.04-9.88 9.12-9.88 9.12 4.56 9.12 9.88zm-6.08-1.9 0.38-0.38c0-0.38-0.38-3.04-3.42-3.04s-3.42 2.66-3.42 3.04l0.38 0.38zm8.36 1.9c0-6.08 3.8-9.88 8.36-9.88 3.42 0 4.94 1.9 4.94 1.9h0.38v-8.74l0.38-0.38h4.56l0.38 0.38v25.84l-0.38 0.38h-4.18l-0.38-0.38-0.38-1.14h-0.38s-1.52 1.9-4.94 1.9c-4.56 0-8.36-3.8-8.36-9.88zm5.32 0c0 3.04 1.14 5.32 4.18 5.32s4.18-2.28 4.18-5.32-1.14-5.32-4.18-5.32-4.18 2.28-4.18 5.32zm30.78-5.32-0.38 0.38h-2.66c-3.04 0-4.18 1.52-4.18 4.94v9.12l-0.38 0.38h-4.56l-0.38-0.38v-18.24l0.38-0.38h4.18l0.38 0.38 0.38 1.14h0.38s0.76-1.52 4.18-1.52h2.28l0.38 0.38zm20.9 5.32c0 6.08-3.8 9.88-9.5 9.88s-9.5-3.8-9.5-9.88 3.8-9.88 9.5-9.88 9.5 3.8 9.5 9.88zm-5.32 0c0-3.42-1.52-5.32-4.18-5.32s-4.18 1.9-4.18 5.32 1.52 5.32 4.18 5.32 4.18-1.9 4.18-5.32zm12.92 0c0 3.42 1.52 5.32 4.18 5.32 1.9 0 3.04-0.76 3.42-1.9l0.38-0.38h4.56l0.38 0.38c-0.76 4.56-4.56 6.46-8.74 6.46-5.7 0-9.5-3.8-9.5-9.88s3.8-9.88 9.5-9.88c4.18 0 7.98 1.9 8.74 6.46l-0.38 0.38h-4.56l-0.38-0.38c-0.38-1.14-1.52-1.9-3.42-1.9-2.66 0-4.18 1.9-4.18 5.32zm33.44 9.12-0.38 0.38h-2.28l-0.76-0.38-5.32-5.7h-0.38l-2.28 2.28-0.38 0.76v2.66l-0.38 0.38h-4.56l-0.38-0.38v-25.84l0.38-0.38h4.56l0.38 0.38v15.2h0.38l7.6-7.6 0.76-0.38h2.28l0.38 0.38v3.8l-4.56 4.56v0.38l4.94 5.7z"/></g></svg>
