<svg fill="none" version="1.1" viewBox="0 0 121 72.026" xmlns="http://www.w3.org/2000/svg"><path d="m109.72 0h-98.492c-6.233 0-11.279 5.0952-11.229 11.279v37.596c0 6.2329 5.0458 11.279 11.279 11.279h46.649l21.321 11.872-4.848-11.872h35.32c6.2332 0 11.279-5.0459 11.279-11.279v-37.596c0-6.233-5.0455-11.279-11.279-11.279zm-100.57 8.7064c-1.3851 0.098945-2.424 0.59364-3.1165 1.5335-0.69255 0.89044-0.93988 2.0282-0.79149 3.3144 2.9186 18.551 5.6394 31.066 8.1623 37.547 0.98938 2.3744 2.1272 3.5124 3.4628 3.4134 2.0776-0.14857 4.5511-3.0176 7.4697-8.6075 1.5335-3.1662 3.908-7.9149 7.1235-14.247 2.6712 9.3495 6.3318 16.374 10.933 21.074 1.2863 1.3356 2.6219 1.9293 3.9078 1.8303 1.138-0.09894 2.0282-0.69261 2.6219-1.781 0.49472-0.93981 0.69261-2.0282 0.59366-3.2649-0.29683-4.5015 0.14857-10.784 1.3852-18.847 1.286-8.3107 2.8691-14.296 4.7983-17.858 0.39578-0.74202 0.54404-1.4841 0.49472-2.3745-0.09894-1.1378-0.59367-2.0777-1.5335-2.8197-0.93982-0.74202-1.9789-1.0883-3.1166-0.98938-1.4345 0.098944-2.5229 0.79149-3.2649 2.1766-3.067 5.5899-5.2437 14.643-6.5297 27.208-1.8799-4.7489-3.4631-10.339-4.6997-16.918-0.54404-2.9186-1.8796-4.3037-4.0564-4.1553-1.484 0.09891-2.7207 1.0883-3.7101 2.9681l-10.834 20.628c-1.7809-7.1729-3.4628-15.929-4.9963-26.268-0.34628-2.5723-1.7809-3.7596-4.3037-3.5617zm95.326 3.5619c3.5124 0.74205 6.1342 2.6218 7.9149 5.7383 1.5831 2.6713 2.3744 5.8868 2.3744 9.7453 0 5.0951-1.286 9.7452-3.8585 14-2.968 4.9469-6.8265 7.4202-11.625 7.4202-0.84087 0-1.7314-0.09894-2.6715-0.29683-3.5121-0.74193-6.1339-2.6216-7.9149-5.7382-1.5828-2.7208-2.3744-5.9857-2.3744-9.7949 0-5.0952 1.2863-9.7452 3.8585-13.95 3.0177-4.9468 6.8762-7.4203 11.625-7.4203 0.84087 0 1.7314 0.09894 2.6712 0.2968zm-2.0775 26.762c1.8303-1.6324 3.067-4.0564 3.7596-7.3213 0.19789-1.1377 0.34615-2.3744 0.34615-3.6606 0-1.4346-0.29684-2.9681-0.8905-4.5016-0.74193-1.9293-1.7314-2.9681-2.9187-3.2154-1.7807-0.34627-3.5121 0.64311-5.1445 3.0671-1.3356 1.8798-2.1768 3.8585-2.6219 5.8867-0.24752 1.1378-0.34646 2.3746-0.34646 3.6113 0 1.4345 0.29683 2.968 0.8905 4.5015 0.74224 1.9293 1.7314 2.968 2.9187 3.2155 1.2366 0.2472 2.5722-0.29683 4.0071-1.5831zm-21.024-21.024c-1.781-3.1165-4.4522-4.9963-7.9149-5.7383-0.94013-0.19786-1.8303-0.2968-2.6715-0.2968-4.7487 0-8.6072 2.4734-11.625 7.4203-2.5726 4.2048-3.8585 8.8548-3.8585 13.95 0 3.8092 0.79156 7.0741 2.3744 9.7949 1.781 3.1166 4.4029 4.9962 7.9149 5.7382 0.93982 0.19789 1.8303 0.29683 2.6715 0.29683 4.7983 0 8.6569-2.4733 11.625-7.4202 2.5726-4.2543 3.8585-8.9044 3.8585-14 0-3.8585-0.79156-7.074-2.3744-9.7453zm-6.2332 13.703c-0.6923 3.2649-1.9293 5.6888-3.7596 7.3213-1.4345 1.2863-2.7701 1.8303-4.0068 1.5831-1.1873-0.24752-2.1768-1.2863-2.9187-3.2155-0.59367-1.5335-0.8905-3.067-0.8905-4.5015 0-1.2366 0.09894-2.4735 0.34646-3.6113 0.44509-2.0282 1.286-4.0069 2.6216-5.8867 1.6327-2.424 3.3641-3.4133 5.1448-3.0671 1.1873 0.24736 2.1768 1.2862 2.9187 3.2154 0.59367 1.5335 0.8905 3.0671 0.8905 4.5016 0 1.2862-0.09894 2.5229-0.34646 3.6606z" clip-rule="evenodd" fill="#7f54b3" fill-rule="evenodd" stroke-width="3.1612"/></svg>
