<svg id="gridicons-my-sites" version="1.1" viewBox="0 0 20 20" xmlns="http://www.w3.org/2000/svg"><g transform="translate(-2,-2)" fill="#0675c4"><path d="m12 2c-5.523 0-10 4.477-10 10s4.477 10 10 10 10-4.477 10-10-4.477-10-10-10zm-8.5 10c0-1.232 0.264-2.402 0.736-3.46l4.054 11.11c-2.834-1.378-4.79-4.285-4.79-7.65zm8.5 8.5c-0.834 0-1.64-0.12-2.4-0.345l2.55-7.41 2.613 7.157c0.017 0.042 0.038 0.08 0.06 0.117-0.884 0.31-1.833 0.48-2.823 0.48zm1.172-12.485c0.512-0.027 0.973-0.08 0.973-0.08 0.458-0.055 0.404-0.728-0.054-0.702 0 0-1.376 0.108-2.265 0.108-0.835 0-2.24-0.107-2.24-0.107-0.458-0.026-0.51 0.674-0.053 0.7 0 0 0.434 0.055 0.892 0.082l1.324 3.63-1.86 5.578-3.096-9.208c0.512-0.027 0.973-0.08 0.973-0.08 0.458-0.055 0.403-0.728-0.055-0.702 0 0-1.376 0.108-2.265 0.108-0.16 0-0.347-3e-3 -0.547-0.01 1.519-2.307 4.131-3.832 7.101-3.832 2.213 0 4.228 0.846 5.74 2.232-0.037-2e-3 -0.072-7e-3 -0.11-7e-3 -0.835 0-1.427 0.727-1.427 1.51 0 0.7 0.404 1.292 0.835 1.993 0.323 0.566 0.7 1.293 0.7 2.344 0 0.727-0.28 1.572-0.646 2.748l-0.848 2.833zm3.1 11.332 2.597-7.506c0.484-1.212 0.645-2.18 0.645-3.044 0-0.313-0.02-0.603-0.057-0.874 0.664 1.21 1.042 2.6 1.042 4.078 0 3.136-1.7 5.874-4.227 7.347z" fill="#0675c4"/></g></svg>
